<svg width="132" height="23" viewBox="0 0 132 23" fill="none" xmlns="http://www.w3.org/2000/svg">
<path d="M7.43848 20.4V3.3H9.68848C10.6085 3.3 11.3685 3.46 11.9685 3.78C12.5885 4.1 13.0485 4.58 13.3485 5.22C13.6685 5.84 13.8285 6.63 13.8285 7.59C13.8285 8.55 13.6685 9.37 13.3485 10.05C13.0285 10.71 12.5485 11.22 11.9085 11.58C11.2885 11.92 10.5085 12.09 9.56848 12.09H6.50848V14.16H10.3785C12.0985 14.16 13.5785 13.89 14.8185 13.35C16.0585 12.79 17.0085 12.02 17.6685 11.04C18.3485 10.04 18.6885 8.87 18.6885 7.53C18.6885 5.55 17.9685 4 16.5285 2.88C15.1085 1.76 13.1085 1.2 10.5285 1.2H0.298477V2.97H0.598477C1.19848 2.97 1.68848 3.04 2.06848 3.18C2.44848 3.32 2.63848 3.61 2.63848 4.05V19.65C2.63848 20.09 2.44848 20.38 2.06848 20.52C1.68848 20.66 1.19848 20.73 0.598477 20.73H0.298477V22.5H10.0785V20.73H9.29848C9.09848 20.73 8.88848 20.73 8.66848 20.73C8.44848 20.71 8.23848 20.69 8.03848 20.67C7.85848 20.63 7.70848 20.6 7.58848 20.58C7.48848 20.54 7.43848 20.48 7.43848 20.4ZM24.6763 4.65C23.8963 4.65 23.2663 4.45 22.7863 4.05C22.3263 3.65 22.0963 3.09 22.0963 2.37C22.0963 1.67 22.3263 1.13 22.7863 0.749999C23.2663 0.349998 23.8963 0.149998 24.6763 0.149998C25.4563 0.149998 26.0763 0.349998 26.5363 0.749999C27.0163 1.13 27.2563 1.67 27.2563 2.37C27.2563 3.09 27.0163 3.65 26.5363 4.05C26.0763 4.45 25.4563 4.65 24.6763 4.65ZM27.0463 7.17V19.89C27.0463 20.27 27.2263 20.53 27.5863 20.67C27.9463 20.79 28.3863 20.85 28.9063 20.85H28.9363V22.5H20.5963V20.85H20.6263C21.1663 20.85 21.6063 20.79 21.9463 20.67C22.3063 20.53 22.4863 20.27 22.4863 19.89V10.08C22.4863 9.72 22.3563 9.47 22.0963 9.33C21.8363 9.19 21.4163 9.06 20.8363 8.94L20.5663 8.88V7.17H27.0463ZM39.6207 20.67C40.4007 20.67 41.0707 20.51 41.6307 20.19C42.1907 19.85 42.6707 19.44 43.0707 18.96C43.4907 18.46 43.8407 17.98 44.1207 17.52L45.7407 18.78C45.3207 19.54 44.8007 20.23 44.1807 20.85C43.5807 21.45 42.8607 21.93 42.0207 22.29C41.1807 22.63 40.1707 22.8 38.9907 22.8C37.3507 22.8 35.9007 22.47 34.6407 21.81C33.3807 21.15 32.3907 20.23 31.6707 19.05C30.9507 17.85 30.5907 16.44 30.5907 14.82C30.5907 13.2 30.9507 11.8 31.6707 10.62C32.4107 9.42 33.4207 8.5 34.7007 7.86C36.0007 7.2 37.5207 6.87 39.2607 6.87C40.3607 6.87 41.3207 6.98 42.1407 7.2C42.9807 7.42 43.6707 7.67 44.2107 7.95C44.7707 8.23 45.1707 8.48 45.4107 8.7V12.6H41.7507V8.91C42.0107 8.95 42.2207 9.03 42.3807 9.15C42.5407 9.27 42.6607 9.41 42.7407 9.57C42.8407 9.73 42.8907 9.91 42.8907 10.11C42.8907 10.29 42.8407 10.47 42.7407 10.65C42.4607 10.15 42.0207 9.74 41.4207 9.42C40.8407 9.1 40.1907 8.94 39.4707 8.94C38.5507 8.94 37.7807 9.18 37.1607 9.66C36.5407 10.14 36.0707 10.83 35.7507 11.73C35.4507 12.61 35.3007 13.64 35.3007 14.82C35.3007 15.72 35.3907 16.53 35.5707 17.25C35.7707 17.97 36.0507 18.59 36.4107 19.11C36.7907 19.61 37.2507 20 37.7907 20.28C38.3307 20.54 38.9407 20.67 39.6207 20.67ZM56.7838 20.61C57.5638 20.61 58.2238 20.51 58.7638 20.31C59.3238 20.09 59.7538 19.75 60.0538 19.29C60.3538 18.83 60.5038 18.25 60.5038 17.55C60.5038 16.93 60.3638 16.41 60.0838 15.99C59.8038 15.57 59.4038 15.22 58.8838 14.94C58.3838 14.66 57.7938 14.41 57.1138 14.19C56.4338 13.97 55.7038 13.74 54.9238 13.5C54.1438 13.28 53.3738 13.02 52.6138 12.72C51.8538 12.4 51.1638 11.99 50.5438 11.49C49.9438 10.99 49.4638 10.37 49.1038 9.63C48.7438 8.89 48.5638 7.98 48.5638 6.9C48.5638 5.64 48.8738 4.57 49.4938 3.69C50.1338 2.79 50.9738 2.1 52.0138 1.62C53.0538 1.14 54.1938 0.899999 55.4338 0.899999C56.4738 0.899999 57.4038 1.04 58.2238 1.32C59.0638 1.6 59.8038 2.08 60.4438 2.76C61.0838 3.44 61.6238 4.37 62.0638 5.55L60.6838 5.43L61.2238 1.2H63.2338V6.81H60.9238C60.6638 6.01 60.2838 5.33 59.7838 4.77C59.3038 4.21 58.7338 3.79 58.0738 3.51C57.4338 3.21 56.7338 3.06 55.9738 3.06C55.2538 3.06 54.6338 3.17 54.1138 3.39C53.6138 3.61 53.2338 3.93 52.9738 4.35C52.7138 4.75 52.5838 5.24 52.5838 5.82C52.5838 6.4 52.7238 6.88 53.0038 7.26C53.2838 7.64 53.6638 7.96 54.1438 8.22C54.6438 8.46 55.2138 8.68 55.8538 8.88C56.5138 9.06 57.2038 9.25 57.9238 9.45C58.8038 9.67 59.6338 9.94 60.4138 10.26C61.2138 10.58 61.9338 10.98 62.5738 11.46C63.2138 11.94 63.7138 12.56 64.0738 13.32C64.4538 14.06 64.6438 14.98 64.6438 16.08C64.6438 17.46 64.3238 18.66 63.6838 19.68C63.0638 20.68 62.1838 21.45 61.0438 21.99C59.9238 22.53 58.6238 22.8 57.1438 22.8C55.9838 22.8 54.8738 22.62 53.8138 22.26C52.7738 21.9 51.8438 21.32 51.0238 20.52C50.2038 19.7 49.5638 18.61 49.1038 17.25L50.6338 17.55L50.0938 22.5H47.9638V15.84H50.3938C50.7338 16.82 51.2238 17.67 51.8638 18.39C52.5038 19.11 53.2438 19.66 54.0838 20.04C54.9438 20.42 55.8438 20.61 56.7838 20.61ZM72.9838 0.419998V20.55C72.9838 20.61 73.0638 20.67 73.2238 20.73C73.4038 20.77 73.6238 20.8 73.8838 20.82C74.1438 20.84 74.3838 20.85 74.6038 20.85H74.6938V22.5H66.5038V20.85H66.5638C66.9038 20.85 67.2138 20.82 67.4938 20.76C67.7938 20.7 68.0238 20.6 68.1838 20.46C68.3438 20.32 68.4238 20.13 68.4238 19.89V3.33C68.4238 3.07 68.3638 2.88 68.2438 2.76C68.1438 2.62 67.9738 2.51 67.7338 2.43C67.4938 2.35 67.1738 2.27 66.7738 2.19L66.5038 2.13V0.419998H72.9838ZM84.9538 22.5H76.7938V20.85H76.8238C77.0438 20.85 77.2838 20.84 77.5438 20.82C77.8038 20.8 78.0238 20.77 78.2038 20.73C78.3838 20.67 78.4738 20.61 78.4738 20.55V12C78.4738 11.4 78.4138 10.92 78.2938 10.56C78.1738 10.18 77.9638 9.9 77.6638 9.72C77.3838 9.54 77.0038 9.45 76.5238 9.45C75.9838 9.45 75.4638 9.58 74.9638 9.84C74.4838 10.1 74.0338 10.49 73.6138 11.01C73.1938 11.53 72.7838 12.18 72.3838 12.96L72.3538 10.47C72.7938 9.69 73.2838 9.04 73.8238 8.52C74.3838 7.98 75.0138 7.57 75.7138 7.29C76.4138 7.01 77.1838 6.87 78.0238 6.87C79.0438 6.87 79.9238 7.06 80.6638 7.44C81.4038 7.8 81.9838 8.36 82.4038 9.12C82.8238 9.86 83.0338 10.8 83.0338 11.94V19.89C83.0338 20.27 83.2138 20.53 83.5738 20.67C83.9338 20.79 84.3738 20.85 84.8938 20.85H84.9538V22.5ZM96.6285 13.26L96.5985 14.94C95.8185 15.04 95.1185 15.16 94.4985 15.3C93.8785 15.44 93.3385 15.62 92.8785 15.84C92.4385 16.04 92.0685 16.28 91.7685 16.56C91.4885 16.82 91.2685 17.12 91.1085 17.46C90.9685 17.8 90.8985 18.17 90.8985 18.57C90.8985 19.03 90.9885 19.43 91.1685 19.77C91.3485 20.09 91.5985 20.34 91.9185 20.52C92.2385 20.68 92.6085 20.76 93.0285 20.76C93.5685 20.76 94.0585 20.62 94.4985 20.34C94.9385 20.06 95.3285 19.66 95.6685 19.14C96.0085 18.62 96.2985 18.02 96.5385 17.34L96.5985 19.38C96.2985 20.1 95.9085 20.72 95.4285 21.24C94.9685 21.74 94.4085 22.13 93.7485 22.41C93.0885 22.67 92.3385 22.8 91.4985 22.8C90.5185 22.8 89.6585 22.65 88.9185 22.35C88.1785 22.03 87.5985 21.57 87.1785 20.97C86.7785 20.35 86.5785 19.61 86.5785 18.75C86.5785 17.91 86.7885 17.19 87.2085 16.59C87.6485 15.99 88.2885 15.48 89.1285 15.06C89.9685 14.62 91.0085 14.26 92.2485 13.98C93.5085 13.68 94.9685 13.44 96.6285 13.26ZM96.2385 22.5V19.47H95.9085V11.58C95.9085 10.94 95.8085 10.42 95.6085 10.02C95.4285 9.62 95.1585 9.34 94.7985 9.18C94.4385 9 93.9885 8.91 93.4485 8.91C92.6285 8.91 91.9585 9.09 91.4385 9.45C90.9185 9.79 90.5085 10.2 90.2085 10.68C90.0885 10.46 90.0285 10.26 90.0285 10.08C90.0285 9.88 90.0785 9.7 90.1785 9.54C90.2985 9.36 90.4485 9.21 90.6285 9.09C90.8285 8.97 91.0485 8.88 91.2885 8.82V12H87.5985V8.79C87.8985 8.57 88.3285 8.31 88.8885 8.01C89.4485 7.71 90.1485 7.45 90.9885 7.23C91.8285 6.99 92.7985 6.87 93.8985 6.87C94.7985 6.87 95.6385 6.97 96.4185 7.17C97.1985 7.35 97.8785 7.64 98.4585 8.04C99.0585 8.44 99.5185 8.97 99.8385 9.63C100.178 10.27 100.348 11.06 100.348 12V19.8C100.348 20.04 100.418 20.23 100.558 20.37C100.718 20.49 100.928 20.58 101.188 20.64C101.468 20.7 101.788 20.74 102.148 20.76L102.238 20.79V22.5H96.2385ZM115.116 7.05V11.04C114.976 11 114.806 10.96 114.606 10.92C114.406 10.88 114.196 10.85 113.976 10.83C113.776 10.81 113.576 10.8 113.376 10.8C112.896 10.8 112.456 10.86 112.056 10.98C111.656 11.08 111.296 11.25 110.976 11.49C110.656 11.71 110.366 12 110.106 12.36C109.846 12.72 109.596 13.16 109.356 13.68L109.326 11.91C109.626 10.93 109.976 10.07 110.376 9.33C110.776 8.59 111.266 8.01 111.846 7.59C112.446 7.15 113.176 6.93 114.036 6.93C114.256 6.93 114.466 6.94 114.666 6.96C114.866 6.98 115.016 7.01 115.116 7.05ZM103.476 22.5V20.85H103.536C104.076 20.85 104.516 20.79 104.856 20.67C105.216 20.53 105.396 20.27 105.396 19.89V10.08C105.396 9.82 105.336 9.63 105.216 9.51C105.096 9.39 104.916 9.29 104.676 9.21C104.436 9.11 104.126 9.02 103.746 8.94L103.476 8.88V7.17H109.596V11.88L109.926 11.55V20.16C109.926 20.36 110.046 20.51 110.286 20.61C110.526 20.71 110.806 20.78 111.126 20.82C111.466 20.84 111.766 20.85 112.026 20.85H112.386V22.5H103.476ZM121.255 14.91C121.255 15.83 121.345 16.65 121.525 17.37C121.725 18.09 122.015 18.69 122.395 19.17C122.775 19.65 123.235 20.02 123.775 20.28C124.335 20.52 124.965 20.64 125.665 20.64C126.405 20.64 127.045 20.5 127.585 20.22C128.125 19.92 128.585 19.55 128.965 19.11C129.365 18.67 129.695 18.22 129.955 17.76L131.665 19.05C131.285 19.77 130.795 20.42 130.195 21C129.595 21.56 128.875 22 128.035 22.32C127.195 22.64 126.205 22.8 125.065 22.8C123.405 22.8 121.945 22.48 120.685 21.84C119.425 21.2 118.435 20.29 117.715 19.11C117.015 17.91 116.665 16.5 116.665 14.88C116.665 13.28 117.005 11.88 117.685 10.68C118.385 9.48 119.325 8.55 120.505 7.89C121.705 7.21 123.045 6.87 124.525 6.87C125.725 6.87 126.775 7.05 127.675 7.41C128.595 7.77 129.365 8.32 129.985 9.06C130.605 9.78 131.075 10.69 131.395 11.79C131.735 12.87 131.905 14.14 131.905 15.6H120.595V13.65H128.275L127.525 14.43C127.505 13.43 127.435 12.58 127.315 11.88C127.195 11.18 127.015 10.62 126.775 10.2C126.555 9.76 126.255 9.44 125.875 9.24C125.515 9.04 125.085 8.94 124.585 8.94C124.105 8.94 123.665 9.07 123.265 9.33C122.865 9.57 122.515 9.94 122.215 10.44C121.915 10.92 121.675 11.54 121.495 12.3C121.335 13.04 121.255 13.91 121.255 14.91Z" fill="black"/>
</svg>
